%TF.GenerationSoftware,KiCad,Pcbnew,8.0.4-8.0.4-0~ubuntu24.04.1*%
%TF.CreationDate,2024-08-16T04:23:47+00:00*%
%TF.ProjectId,MDCL,4d44434c-2e6b-4696-9361-645f70636258,0.2*%
%TF.SameCoordinates,Original*%
%TF.FileFunction,Soldermask,Bot*%
%TF.FilePolarity,Negative*%
%FSLAX46Y46*%
G04 Gerber Fmt 4.6, Leading zero omitted, Abs format (unit mm)*
G04 Created by KiCad (PCBNEW 8.0.4-8.0.4-0~ubuntu24.04.1) date 2024-08-16 04:23:47*
%MOMM*%
%LPD*%
G01*
G04 APERTURE LIST*
G04 Aperture macros list*
%AMRoundRect*
0 Rectangle with rounded corners*
0 $1 Rounding radius*
0 $2 $3 $4 $5 $6 $7 $8 $9 X,Y pos of 4 corners*
0 Add a 4 corners polygon primitive as box body*
4,1,4,$2,$3,$4,$5,$6,$7,$8,$9,$2,$3,0*
0 Add four circle primitives for the rounded corners*
1,1,$1+$1,$2,$3*
1,1,$1+$1,$4,$5*
1,1,$1+$1,$6,$7*
1,1,$1+$1,$8,$9*
0 Add four rect primitives between the rounded corners*
20,1,$1+$1,$2,$3,$4,$5,0*
20,1,$1+$1,$4,$5,$6,$7,0*
20,1,$1+$1,$6,$7,$8,$9,0*
20,1,$1+$1,$8,$9,$2,$3,0*%
G04 Aperture macros list end*
%ADD10O,2.150000X1.040000*%
%ADD11R,1.700000X1.700000*%
%ADD12O,1.700000X1.700000*%
%ADD13R,4.000000X4.000000*%
%ADD14C,2.850000*%
%ADD15C,1.550000*%
%ADD16RoundRect,0.249999X-0.525001X0.525001X-0.525001X-0.525001X0.525001X-0.525001X0.525001X0.525001X0*%
%ADD17C,3.250000*%
%ADD18RoundRect,0.250500X-0.499500X-0.499500X0.499500X-0.499500X0.499500X0.499500X-0.499500X0.499500X0*%
%ADD19C,1.500000*%
%ADD20C,2.500000*%
G04 APERTURE END LIST*
D10*
%TO.C,J4*%
X53050000Y-111075000D03*
X53050000Y-116725000D03*
%TD*%
D11*
%TO.C,J13*%
X153500000Y-107100000D03*
D12*
X153500000Y-104560000D03*
X153500000Y-102020000D03*
X153500000Y-99480000D03*
X153500000Y-96940000D03*
X153500000Y-94400000D03*
X153500000Y-91860000D03*
X153500000Y-89320000D03*
X153500000Y-86780000D03*
X153500000Y-84240000D03*
X153500000Y-81700000D03*
X153500000Y-79160000D03*
X153500000Y-76620000D03*
X153500000Y-74080000D03*
X153500000Y-71540000D03*
X153500000Y-69000000D03*
X153500000Y-66460000D03*
X153500000Y-63920000D03*
X153500000Y-61380000D03*
X153500000Y-58840000D03*
X153500000Y-56300000D03*
X153500000Y-53760000D03*
X153500000Y-51220000D03*
X153500000Y-48680000D03*
%TD*%
D11*
%TO.C,D4*%
X53525000Y-38480000D03*
D12*
X53525000Y-41020000D03*
%TD*%
D11*
%TO.C,J8*%
X172500000Y-107250000D03*
D12*
X172500000Y-104710000D03*
X172500000Y-102170000D03*
X172500000Y-99630000D03*
X172500000Y-97090000D03*
X172500000Y-94550000D03*
X172500000Y-92010000D03*
X172500000Y-89470000D03*
X172500000Y-86930000D03*
X172500000Y-84390000D03*
X172500000Y-81850000D03*
X172500000Y-79310000D03*
X172500000Y-76770000D03*
X172500000Y-74230000D03*
X172500000Y-71690000D03*
X172500000Y-69150000D03*
X172500000Y-66610000D03*
X172500000Y-64070000D03*
X172500000Y-61530000D03*
X172500000Y-58990000D03*
X172500000Y-56450000D03*
X172500000Y-53910000D03*
X172500000Y-51370000D03*
X172500000Y-48830000D03*
%TD*%
D11*
%TO.C,J9*%
X157250000Y-107230000D03*
D12*
X157250000Y-104690000D03*
X157250000Y-102150000D03*
X157250000Y-99610000D03*
X157250000Y-97070000D03*
X157250000Y-94530000D03*
X157250000Y-91990000D03*
X157250000Y-89450000D03*
X157250000Y-86910000D03*
X157250000Y-84370000D03*
X157250000Y-81830000D03*
X157250000Y-79290000D03*
X157250000Y-76750000D03*
X157250000Y-74210000D03*
X157250000Y-71670000D03*
X157250000Y-69130000D03*
X157250000Y-66590000D03*
X157250000Y-64050000D03*
X157250000Y-61510000D03*
X157250000Y-58970000D03*
X157250000Y-56430000D03*
X157250000Y-53890000D03*
X157250000Y-51350000D03*
X157250000Y-48810000D03*
%TD*%
D11*
%TO.C,J12*%
X176500000Y-107380000D03*
D12*
X176500000Y-104840000D03*
X176500000Y-102300000D03*
X176500000Y-99760000D03*
X176500000Y-97220000D03*
X176500000Y-94680000D03*
X176500000Y-92140000D03*
X176500000Y-89600000D03*
X176500000Y-87060000D03*
X176500000Y-84520000D03*
X176500000Y-81980000D03*
X176500000Y-79440000D03*
X176500000Y-76900000D03*
X176500000Y-74360000D03*
X176500000Y-71820000D03*
X176500000Y-69280000D03*
X176500000Y-66740000D03*
X176500000Y-64200000D03*
X176500000Y-61660000D03*
X176500000Y-59120000D03*
X176500000Y-56580000D03*
X176500000Y-54040000D03*
X176500000Y-51500000D03*
X176500000Y-48960000D03*
%TD*%
D11*
%TO.C,D2*%
X53525000Y-33480000D03*
D12*
X53525000Y-36020000D03*
%TD*%
D13*
%TO.C,TP1*%
X192500000Y-107250000D03*
%TD*%
D14*
%TO.C,J1*%
X269079999Y-24880000D03*
X269079999Y-113780000D03*
D15*
X263999999Y-32500000D03*
X263999999Y-37580000D03*
X263999999Y-42660000D03*
X263999999Y-47740000D03*
X263999999Y-52820000D03*
X263999999Y-57900000D03*
X263999999Y-62980000D03*
X263999999Y-68060000D03*
X263999999Y-73140000D03*
X263999999Y-78220000D03*
X263999999Y-83300000D03*
X263999999Y-88380000D03*
X263999999Y-93460000D03*
X263999999Y-98540000D03*
X263999999Y-103620000D03*
X263999999Y-108700000D03*
X261459999Y-32500000D03*
X261459999Y-37580000D03*
X261459999Y-42660000D03*
X261459999Y-47740000D03*
X261459999Y-52820000D03*
X261459999Y-57900000D03*
X261459999Y-62980000D03*
X261459999Y-68060000D03*
X261459999Y-73140000D03*
X261459999Y-78220000D03*
X261459999Y-83300000D03*
X261459999Y-88380000D03*
X261459999Y-93460000D03*
X261459999Y-98540000D03*
X261459999Y-103620000D03*
X261459999Y-108700000D03*
D16*
X266539999Y-32500000D03*
D15*
X266539999Y-37580000D03*
X266539999Y-42660000D03*
X266539999Y-47740000D03*
X266539999Y-52820000D03*
X266539999Y-57900000D03*
X266539999Y-62980000D03*
X266539999Y-68060000D03*
X266539999Y-73140000D03*
X266539999Y-78220000D03*
X266539999Y-83300000D03*
X266539999Y-88380000D03*
X266539999Y-93460000D03*
X266539999Y-98540000D03*
X266539999Y-103620000D03*
X266539999Y-108700000D03*
%TD*%
D14*
%TO.C,J2*%
X269040000Y-158420000D03*
X269040000Y-247320000D03*
D15*
X263960000Y-166040000D03*
X263960000Y-171120000D03*
X263960000Y-176200000D03*
X263960000Y-181280000D03*
X263960000Y-186360000D03*
X263960000Y-191440000D03*
X263960000Y-196520000D03*
X263960000Y-201600000D03*
X263960000Y-206680000D03*
X263960000Y-211760000D03*
X263960000Y-216840000D03*
X263960000Y-221920000D03*
X263960000Y-227000000D03*
X263960000Y-232080000D03*
X263960000Y-237160000D03*
X263960000Y-242240000D03*
X261420000Y-166040000D03*
X261420000Y-171120000D03*
X261420000Y-176200000D03*
X261420000Y-181280000D03*
X261420000Y-186360000D03*
X261420000Y-191440000D03*
X261420000Y-196520000D03*
X261420000Y-201600000D03*
X261420000Y-206680000D03*
X261420000Y-211760000D03*
X261420000Y-216840000D03*
X261420000Y-221920000D03*
X261420000Y-227000000D03*
X261420000Y-232080000D03*
X261420000Y-237160000D03*
X261420000Y-242240000D03*
D16*
X266500000Y-166040000D03*
D15*
X266500000Y-171120000D03*
X266500000Y-176200000D03*
X266500000Y-181280000D03*
X266500000Y-186360000D03*
X266500000Y-191440000D03*
X266500000Y-196520000D03*
X266500000Y-201600000D03*
X266500000Y-206680000D03*
X266500000Y-211760000D03*
X266500000Y-216840000D03*
X266500000Y-221920000D03*
X266500000Y-227000000D03*
X266500000Y-232080000D03*
X266500000Y-237160000D03*
X266500000Y-242240000D03*
%TD*%
D13*
%TO.C,TP2*%
X250750000Y-107500000D03*
%TD*%
D11*
%TO.C,D5*%
X53525000Y-43480000D03*
D12*
X53525000Y-46020000D03*
%TD*%
D11*
%TO.C,D6*%
X53525000Y-48480000D03*
D12*
X53525000Y-51020000D03*
%TD*%
D17*
%TO.C,J3*%
X128610000Y-100420000D03*
X140040000Y-100420000D03*
D18*
X129880000Y-94070000D03*
D19*
X131150000Y-91530000D03*
X132420000Y-94070000D03*
X133690000Y-91530000D03*
X134960000Y-94070000D03*
X136230000Y-91530000D03*
X137500000Y-94070000D03*
X138770000Y-91530000D03*
X128000000Y-105500000D03*
X130540000Y-103800000D03*
X138110000Y-105500000D03*
X140650000Y-103800000D03*
D20*
X126450000Y-97370000D03*
X142200000Y-97370000D03*
%TD*%
M02*
