%TF.GenerationSoftware,KiCad,Pcbnew,8.0.4-8.0.4-0~ubuntu24.04.1*%
%TF.CreationDate,2024-08-16T04:23:47+00:00*%
%TF.ProjectId,MDCL,4d44434c-2e6b-4696-9361-645f70636258,0.2*%
%TF.SameCoordinates,Original*%
%TF.FileFunction,Profile,NP*%
%FSLAX46Y46*%
G04 Gerber Fmt 4.6, Leading zero omitted, Abs format (unit mm)*
G04 Created by KiCad (PCBNEW 8.0.4-8.0.4-0~ubuntu24.04.1) date 2024-08-16 04:23:47*
%MOMM*%
%LPD*%
G01*
G04 APERTURE LIST*
%TA.AperFunction,Profile*%
%ADD10C,0.050000*%
%TD*%
G04 APERTURE END LIST*
D10*
X125750000Y-114000000D02*
X125750000Y-124000000D01*
X260000000Y-19500000D02*
X125500000Y-19500000D01*
X125500000Y-252500000D02*
X260000000Y-252500000D01*
X55500000Y-25000000D02*
G75*
G02*
X52500000Y-25000000I-1500000J0D01*
G01*
X52500000Y-25000000D02*
G75*
G02*
X55500000Y-25000000I1500000J0D01*
G01*
X53500000Y-19500000D02*
X51500000Y-21500000D01*
X122500000Y-19500000D02*
X53500000Y-19500000D01*
X260000000Y-252500000D02*
G75*
G02*
X263000000Y-252500000I1500000J0D01*
G01*
X142500000Y-113750000D02*
X125750000Y-113750000D01*
X55500000Y-136500000D02*
G75*
G02*
X52500000Y-136500000I-1500000J0D01*
G01*
X52500000Y-136500000D02*
G75*
G02*
X55500000Y-136500000I1500000J0D01*
G01*
X263000000Y-19500000D02*
G75*
G02*
X260000000Y-19500000I-1500000J0D01*
G01*
X143000000Y-124000000D02*
X143000000Y-113750000D01*
X271500000Y-250500000D02*
X271500000Y-21500000D01*
X142500000Y-113750000D02*
X143000000Y-113750000D01*
X51500000Y-21500000D02*
X51500000Y-250500000D01*
X271500000Y-21500000D02*
X269500000Y-19500000D01*
X125750000Y-124000000D02*
X142500000Y-124000000D01*
X122500000Y-252500000D02*
G75*
G02*
X125500000Y-252500000I1500000J0D01*
G01*
X142500000Y-124000000D02*
X143000000Y-124000000D01*
X269500000Y-252500000D02*
X271500000Y-250500000D01*
X263000000Y-252500000D02*
X269500000Y-252500000D01*
X125500000Y-19500000D02*
G75*
G02*
X122500000Y-19500000I-1500000J0D01*
G01*
X51500000Y-250500000D02*
X53500000Y-252500000D01*
X125750000Y-113750000D02*
X125750000Y-114000000D01*
X269500000Y-19500000D02*
X263000000Y-19500000D01*
X53500000Y-252500000D02*
X122500000Y-252500000D01*
X55500000Y-247500000D02*
G75*
G02*
X52500000Y-247500000I-1500000J0D01*
G01*
X52500000Y-247500000D02*
G75*
G02*
X55500000Y-247500000I1500000J0D01*
G01*
%TO.C,J4*%
X55475000Y-111900000D02*
G75*
G02*
X54925000Y-111900000I-275000J0D01*
G01*
X54925000Y-111900000D02*
G75*
G02*
X55475000Y-111900000I275000J0D01*
G01*
X55475000Y-115900000D02*
G75*
G02*
X54925000Y-115900000I-275000J0D01*
G01*
X54925000Y-115900000D02*
G75*
G02*
X55475000Y-115900000I275000J0D01*
G01*
%TD*%
M02*
