M48
; DRILL file {KiCad 8.0.4-8.0.4-0~ubuntu24.04.1} date 2024-08-16T04:23:39+0000
; FORMAT={-:-/ absolute / metric / decimal}
; #@! TF.CreationDate,2024-08-16T04:23:39+00:00
; #@! TF.GenerationSoftware,Kicad,Pcbnew,8.0.4-8.0.4-0~ubuntu24.04.1
; #@! TF.FileFunction,Plated,1,4,PTH
FMAT,2
METRIC
; #@! TA.AperFunction,Plated,PTH,ViaDrill
T1C0.300
; #@! TA.AperFunction,Plated,PTH,ComponentDrill
T2C0.450
; #@! TA.AperFunction,Plated,PTH,ComponentDrill
T3C0.900
; #@! TA.AperFunction,Plated,PTH,ComponentDrill
T4C1.000
; #@! TA.AperFunction,Plated,PTH,ComponentDrill
T5C1.020
; #@! TA.AperFunction,Plated,PTH,ComponentDrill
T6C1.600
; #@! TA.AperFunction,Plated,PTH,ComponentDrill
T7C2.000
%
G90
G05
T1
X54.5Y-109.5
X56.0Y-36.0
X56.0Y-41.0
X56.0Y-46.0
X56.0Y-51.0
X57.8Y-117.3
X62.0Y-104.55
X90.5Y-107.5
X104.5Y-83.0
X105.0Y-86.5
X109.0Y-84.0
X109.11Y-76.11
X114.0Y-81.7
X117.89Y-76.11
X119.5Y-74.0
X127.5Y-59.0
X127.5Y-68.5
X127.5Y-88.5
X128.5Y-61.0
X128.5Y-69.0
X130.5Y-109.0
X145.5Y-135.5
X147.0Y-109.0
X148.5Y-135.5
X152.25Y-78.55
X152.3Y-80.7
X152.35Y-83.15
X152.35Y-87.85
X152.4Y-85.65
X152.5Y-138.0
X153.0Y-156.0
X160.5Y-110.5
X162.0Y-103.0
X162.5Y-101.0
X162.65Y-47.25
X162.65Y-49.75
X162.698Y-93.38
X162.75Y-52.4
X162.75Y-54.45
X162.75Y-95.75
X175.5Y-110.5
X176.5Y-129.5
X177.5Y-44.0
X177.5Y-128.0
X178.5Y-43.1
X178.5Y-120.5
X179.0Y-125.0
X179.3Y-42.5
X179.9Y-41.0
X180.0Y-161.5
X180.5Y-40.0
X180.5Y-124.0
X181.0Y-165.0
X181.5Y-56.5
X182.0Y-164.0
X182.3Y-54.01
X182.9Y-51.5
X182.9Y-163.4
X183.5Y-49.0
X184.0Y-162.5
X185.0Y-66.5
X185.05Y-78.95
X186.0Y-125.3
X186.1Y-76.85
X186.25Y-94.2
X186.27Y-54.23
X186.27Y-74.23
X186.4Y-128.35
X186.5Y-126.0
X187.5Y-64.17
X187.8Y-93.35
X188.0Y-96.5
X188.0Y-110.5
X192.5Y-113.5
X194.5Y-39.5
X198.45Y-83.4
X199.0Y-80.5
X199.65Y-121.55
X200.9Y-124.3
X203.0Y-48.5
X203.0Y-52.6
X205.5Y-82.0
X205.5Y-86.443
X205.65Y-125.45
X206.5Y-92.0
X206.5Y-98.5
X207.6Y-122.7
X207.95Y-89.75
X208.5Y-112.5
X208.5Y-120.5
X208.5Y-160.0
X209.05Y-44.25
X209.7Y-87.8
X210.5Y-93.5
X210.5Y-125.5
X215.5Y-46.5
X215.5Y-54.0
X217.95Y-85.6
X217.95Y-160.75
X219.0Y-62.0
X219.0Y-93.05
X219.0Y-123.0
X220.53Y-49.47
X221.5Y-133.0
X222.5Y-91.75
X223.0Y-80.145
X223.0Y-81.5
X223.5Y-93.0
X224.0Y-79.5
X224.0Y-84.0
X224.0Y-85.6
X224.0Y-91.05
X224.0Y-96.5
X224.0Y-124.0
X224.0Y-160.85
X224.7Y-65.3
X225.495Y-41.0
X225.495Y-53.47
X225.5Y-80.795
X225.5Y-90.5
X225.5Y-112.5
X225.92Y-125.42
X226.0Y-85.6
X226.095Y-40.405
X226.095Y-52.405
X226.5Y-79.0
X226.5Y-82.0
X227.0Y-170.0
X227.5Y-50.5
X228.0Y-34.0
X228.0Y-47.5
X228.5Y-49.0
X228.5Y-170.0
X228.55Y-182.65
X229.5Y-41.5
X229.5Y-96.5
X229.65Y-173.5
X229.75Y-178.55
X229.97Y-80.97
X230.0Y-48.5
X230.0Y-54.5
X230.0Y-87.1
X230.0Y-91.5
X230.35Y-109.95
X230.5Y-77.5
X230.5Y-93.75
X230.5Y-98.5
X230.9Y-47.9
X230.9Y-55.0
X230.986Y-82.986
X231.0Y-120.5
X231.0Y-159.5
X231.0Y-160.5
X231.5Y-47.1
X231.5Y-56.0
X231.9Y-93.05
X232.0Y-44.5
X232.0Y-79.5
X232.0Y-79.5
X232.1Y-57.4
X233.1Y-161.4
X234.0Y-37.5
X234.5Y-49.5
X234.5Y-89.5
X234.5Y-96.5
X234.5Y-170.5
X235.0Y-178.5
X235.5Y-37.5
X235.5Y-57.0
X235.5Y-199.0
X235.955Y-77.545
X236.0Y-159.5
X237.0Y-39.5
X237.0Y-53.47
X237.0Y-75.5
X237.5Y-170.0
X238.0Y-51.0
X242.5Y-56.0
X244.2Y-44.4
X246.5Y-55.5
X249.3Y-51.6
X251.0Y-55.0
X254.0Y-43.5
X255.0Y-32.5
X255.5Y-42.5
X256.1Y-41.6
X257.0Y-41.0
X257.0Y-109.0
X258.0Y-40.0
X258.5Y-39.0
X259.0Y-38.0
X259.5Y-36.5
X263.3Y-195.05
T3
X129.88Y-94.07
X131.15Y-91.53
X132.42Y-94.07
X133.69Y-91.53
X134.96Y-94.07
X136.23Y-91.53
X137.5Y-94.07
X138.77Y-91.53
T4
X53.525Y-33.48
X53.525Y-36.02
X53.525Y-38.48
X53.525Y-41.02
X53.525Y-43.48
X53.525Y-46.02
X53.525Y-48.48
X53.525Y-51.02
X153.5Y-48.68
X153.5Y-51.22
X153.5Y-53.76
X153.5Y-56.3
X153.5Y-58.84
X153.5Y-61.38
X153.5Y-63.92
X153.5Y-66.46
X153.5Y-69.0
X153.5Y-71.54
X153.5Y-74.08
X153.5Y-76.62
X153.5Y-79.16
X153.5Y-81.7
X153.5Y-84.24
X153.5Y-86.78
X153.5Y-89.32
X153.5Y-91.86
X153.5Y-94.4
X153.5Y-96.94
X153.5Y-99.48
X153.5Y-102.02
X153.5Y-104.56
X153.5Y-107.1
X157.25Y-48.81
X157.25Y-51.35
X157.25Y-53.89
X157.25Y-56.43
X157.25Y-58.97
X157.25Y-61.51
X157.25Y-64.05
X157.25Y-66.59
X157.25Y-69.13
X157.25Y-71.67
X157.25Y-74.21
X157.25Y-76.75
X157.25Y-79.29
X157.25Y-81.83
X157.25Y-84.37
X157.25Y-86.91
X157.25Y-89.45
X157.25Y-91.99
X157.25Y-94.53
X157.25Y-97.07
X157.25Y-99.61
X157.25Y-102.15
X157.25Y-104.69
X157.25Y-107.23
X172.5Y-48.83
X172.5Y-51.37
X172.5Y-53.91
X172.5Y-56.45
X172.5Y-58.99
X172.5Y-61.53
X172.5Y-64.07
X172.5Y-66.61
X172.5Y-69.15
X172.5Y-71.69
X172.5Y-74.23
X172.5Y-76.77
X172.5Y-79.31
X172.5Y-81.85
X172.5Y-84.39
X172.5Y-86.93
X172.5Y-89.47
X172.5Y-92.01
X172.5Y-94.55
X172.5Y-97.09
X172.5Y-99.63
X172.5Y-102.17
X172.5Y-104.71
X172.5Y-107.25
X176.5Y-48.96
X176.5Y-51.5
X176.5Y-54.04
X176.5Y-56.58
X176.5Y-59.12
X176.5Y-61.66
X176.5Y-64.2
X176.5Y-66.74
X176.5Y-69.28
X176.5Y-71.82
X176.5Y-74.36
X176.5Y-76.9
X176.5Y-79.44
X176.5Y-81.98
X176.5Y-84.52
X176.5Y-87.06
X176.5Y-89.6
X176.5Y-92.14
X176.5Y-94.68
X176.5Y-97.22
X176.5Y-99.76
X176.5Y-102.3
X176.5Y-104.84
X176.5Y-107.38
X261.42Y-166.04
X261.42Y-171.12
X261.42Y-176.2
X261.42Y-181.28
X261.42Y-186.36
X261.42Y-191.44
X261.42Y-196.52
X261.42Y-201.6
X261.42Y-206.68
X261.42Y-211.76
X261.42Y-216.84
X261.42Y-221.92
X261.42Y-227.0
X261.42Y-232.08
X261.42Y-237.16
X261.42Y-242.24
X261.46Y-32.5
X261.46Y-37.58
X261.46Y-42.66
X261.46Y-47.74
X261.46Y-52.82
X261.46Y-57.9
X261.46Y-62.98
X261.46Y-68.06
X261.46Y-73.14
X261.46Y-78.22
X261.46Y-83.3
X261.46Y-88.38
X261.46Y-93.46
X261.46Y-98.54
X261.46Y-103.62
X261.46Y-108.7
X263.96Y-166.04
X263.96Y-171.12
X263.96Y-176.2
X263.96Y-181.28
X263.96Y-186.36
X263.96Y-191.44
X263.96Y-196.52
X263.96Y-201.6
X263.96Y-206.68
X263.96Y-211.76
X263.96Y-216.84
X263.96Y-221.92
X263.96Y-227.0
X263.96Y-232.08
X263.96Y-237.16
X263.96Y-242.24
X264.0Y-32.5
X264.0Y-37.58
X264.0Y-42.66
X264.0Y-47.74
X264.0Y-52.82
X264.0Y-57.9
X264.0Y-62.98
X264.0Y-68.06
X264.0Y-73.14
X264.0Y-78.22
X264.0Y-83.3
X264.0Y-88.38
X264.0Y-93.46
X264.0Y-98.54
X264.0Y-103.62
X264.0Y-108.7
X266.5Y-166.04
X266.5Y-171.12
X266.5Y-176.2
X266.5Y-181.28
X266.5Y-186.36
X266.5Y-191.44
X266.5Y-196.52
X266.5Y-201.6
X266.5Y-206.68
X266.5Y-211.76
X266.5Y-216.84
X266.5Y-221.92
X266.5Y-227.0
X266.5Y-232.08
X266.5Y-237.16
X266.5Y-242.24
X266.54Y-32.5
X266.54Y-37.58
X266.54Y-42.66
X266.54Y-47.74
X266.54Y-52.82
X266.54Y-57.9
X266.54Y-62.98
X266.54Y-68.06
X266.54Y-73.14
X266.54Y-78.22
X266.54Y-83.3
X266.54Y-88.38
X266.54Y-93.46
X266.54Y-98.54
X266.54Y-103.62
X266.54Y-108.7
T5
X128.0Y-105.5
X130.54Y-103.8
X138.11Y-105.5
X140.65Y-103.8
T6
X126.45Y-97.37
X142.2Y-97.37
T7
X192.5Y-107.25
X250.75Y-107.5
T2
G00X53.605Y-111.075
M15
G01X52.495Y-111.075
M16
G05
G00X53.605Y-116.725
M15
G01X52.495Y-116.725
M16
G05
M30
